<?xml version="1.0" ?><!DOCTYPE svg  PUBLIC '-//W3C//DTD SVG 1.1//EN'  'http://www.w3.org/Graphics/SVG/1.1/DTD/svg11.dtd'><svg xmlns="http://www.w3.org/2000/svg" xmlns:xlink="http://www.w3.org/1999/xlink" xmlns:serif="http://www.serif.com/" width="100%" height="100%" viewBox="0 0 64 64" version="1.1" xml:space="preserve" style="fill-rule:evenodd;clip-rule:evenodd;stroke-linejoin:round;stroke-miterlimit:2;"><g><path d="M30.829,30.621C31.438,31.061 32.242,31.123 32.911,30.781C33.579,30.439 34,29.751 34,29L34,23.153C40.227,24.116 45,29.505 45,36C45,43.175 39.175,49 32,49C24.825,49 19,43.175 19,36C19,32.137 15.863,29 12,29C8.137,29 5,32.137 5,36C5,50.902 17.098,63 32,63C46.902,63 59,50.902 59,36C59,21.771 47.969,10.098 34,9.073L34,3C34,2.249 33.579,1.561 32.911,1.219C32.242,0.877 31.438,0.939 30.829,1.379L12.829,14.379C12.308,14.755 12,15.358 12,16C12,16.642 12.308,17.245 12.829,17.621L30.829,30.621Z"/></g></svg>